<?xml version="1.0" encoding="utf-8"?>
<svg viewBox="200.393 205.098 25 34.007" xmlns="http://www.w3.org/2000/svg">
  <path fill="#1D1D1B" d="M 224.148 220.403 L 222.496 220.403 L 222.496 215.007 C 222.496 212.319 221.455 209.858 219.736 208.055 C 218.023 206.249 215.582 205.093 212.89 205.098 C 210.197 205.093 207.747 206.249 206.036 208.055 C 204.315 209.858 203.274 212.326 203.274 215.007 L 203.274 220.403 L 201.622 220.403 C 200.938 220.403 200.393 220.946 200.393 221.625 L 200.393 235.885 C 200.393 236.56 200.932 236.864 201.622 237.105 C 202.325 237.336 207.143 239.105 212.893 239.105 C 218.643 239.105 223.509 237.379 224.153 237.105 C 224.87 236.793 225.393 236.56 225.393 235.885 L 225.393 221.625 C 225.388 220.946 224.832 220.403 224.148 220.403 Z M 216.585 233.263 C 216.396 233.457 216.138 233.558 215.872 233.558 C 215.608 233.558 215.351 233.457 215.153 233.263 L 212.882 230.992 L 210.607 233.263 C 210.41 233.457 210.152 233.56 209.894 233.56 C 209.638 233.56 209.373 233.457 209.181 233.263 C 208.785 232.867 208.785 232.234 209.181 231.834 L 211.454 229.56 L 209.181 227.289 C 208.785 226.893 208.785 226.256 209.181 225.852 C 209.576 225.456 210.206 225.456 210.607 225.852 L 212.882 228.128 L 215.153 225.852 C 215.549 225.456 216.184 225.456 216.585 225.852 C 216.981 226.248 216.981 226.88 216.585 227.289 L 214.314 229.56 L 216.585 231.836 C 216.986 232.229 216.986 232.87 216.585 233.263 Z M 217.935 220.403 L 207.843 220.403 L 207.843 219.257 L 207.843 217.356 L 207.843 215.003 C 207.843 213.452 208.443 212.079 209.364 211.107 C 210.302 210.128 211.524 209.57 212.885 209.566 C 214.239 209.57 215.455 210.128 216.403 211.107 C 217.341 212.086 217.934 213.461 217.934 215.003 L 217.935 220.403 L 217.935 220.403 Z"/>
</svg>