<?xml version="1.0" encoding="utf-8"?>
<svg viewBox="854.707 424.005 25 34.007" xmlns="http://www.w3.org/2000/svg">
  <path fill="#1D1D1B" d="M 878.479 439.31 L 876.834 439.31 L 876.834 433.914 C 876.834 431.226 875.793 428.765 874.063 426.962 C 872.35 425.156 869.917 424 867.217 424.005 C 864.524 424 862.074 425.156 860.363 426.962 C 858.636 428.765 857.595 431.233 857.595 433.914 L 857.595 435.312 L 862.157 435.312 L 862.157 433.914 C 862.157 432.363 862.761 430.99 863.688 430.018 C 864.626 429.039 865.84 428.484 867.209 428.478 C 868.563 428.484 869.776 429.04 870.724 430.018 C 871.662 430.997 872.255 432.372 872.255 433.914 L 872.255 439.31 L 855.943 439.31 C 855.255 439.31 854.707 439.853 854.707 440.532 L 854.707 454.792 C 854.707 455.467 855.242 455.771 855.943 456.012 C 856.646 456.243 861.464 458.012 867.207 458.012 C 872.951 458.012 877.824 456.286 878.471 456.012 C 879.188 455.7 879.707 455.467 879.707 454.792 L 879.707 440.532 C 879.721 439.853 879.166 439.31 878.479 439.31 Z M 872.752 446.129 L 866.397 452.358 C 866.202 452.546 865.924 452.665 865.641 452.665 C 865.358 452.665 865.086 452.561 864.885 452.358 L 861.801 449.337 C 861.383 448.927 861.383 448.265 861.801 447.858 C 862.219 447.448 862.897 447.448 863.315 447.858 L 865.643 450.129 L 871.239 444.65 C 871.661 444.242 872.343 444.242 872.76 444.65 C 873.17 445.054 873.17 445.719 872.752 446.129 Z"/>
</svg>